<svg xmlns="http://www.w3.org/2000/svg" xmlns:xlink="http://www.w3.org/1999/xlink" width="500" zoomAndPan="magnify" viewBox="0 0 375 374.999991" height="500" preserveAspectRatio="xMidYMid meet" version="1.0"><defs><g/><clipPath id="99004ee62a"><path d="M 85 41 L 290 41 L 290 246.75 L 85 246.75 Z M 85 41 " clip-rule="nonzero"/></clipPath><clipPath id="b730dca951"><path d="M 81.652344 153 L 86 153 L 86 158 L 81.652344 158 Z M 81.652344 153 " clip-rule="nonzero"/></clipPath><clipPath id="6ff5fa64e0"><path d="M 165 37.5 L 170 37.5 L 170 42 L 165 42 Z M 165 37.5 " clip-rule="nonzero"/></clipPath><clipPath id="9893b02168"><path d="M 169.636719 241 L 174.289062 241 L 174.289062 245.097656 L 169.636719 245.097656 Z M 169.636719 241 " clip-rule="nonzero"/></clipPath><clipPath id="573450d1ca"><path d="M 207.28125 241 L 211.511719 241 L 211.511719 245.097656 L 207.28125 245.097656 Z M 207.28125 241 " clip-rule="nonzero"/></clipPath><clipPath id="65129dd0ac"><path d="M 289 136 L 293.152344 136 L 293.152344 141 L 289 141 Z M 289 136 " clip-rule="nonzero"/></clipPath><clipPath id="74e038c843"><path d="M 204 37.5 L 209 37.5 L 209 42 L 204 42 Z M 204 37.5 " clip-rule="nonzero"/></clipPath></defs><rect x="-37.5" width="450" fill="#ffffff" y="-37.499999" height="449.999989" fill-opacity="1"/><rect x="-37.5" width="450" fill="#ffffff" y="-37.499999" height="449.999989" fill-opacity="1"/><rect x="-37.5" width="450" fill="#ffbd1f" y="-37.499999" height="449.999989" fill-opacity="1"/><path fill="#141414" d="M 209.796875 210.847656 C 231.636719 204.171875 248.929688 186.324219 254.929688 164.269531 C 255.667969 161.558594 258.464844 159.949219 261.171875 160.695312 C 263.882812 161.4375 265.476562 164.238281 264.742188 166.953125 C 257.828125 192.355469 237.914062 212.910156 212.765625 220.597656 C 212.273438 220.75 211.769531 220.820312 211.28125 220.820312 C 209.101562 220.820312 207.089844 219.40625 206.417969 217.207031 C 205.597656 214.519531 207.113281 211.671875 209.796875 210.847656 Z M 209.796875 210.847656 " fill-opacity="1" fill-rule="nonzero"/><path fill="#141414" d="M 260.109375 113.347656 C 261.3125 115.894531 260.226562 118.929688 257.6875 120.136719 C 255.148438 121.339844 252.117188 120.253906 250.917969 117.710938 C 239.84375 94.269531 215.980469 79.125 190.128906 79.125 C 153.085938 79.125 122.945312 109.328125 122.945312 146.457031 C 122.945312 172.363281 138.054688 196.273438 161.445312 207.371094 C 163.984375 208.574219 165.070312 211.613281 163.867188 214.15625 C 162.996094 215.996094 161.171875 217.074219 159.265625 217.070312 C 158.539062 217.070312 157.796875 216.914062 157.097656 216.582031 C 130.171875 203.804688 112.777344 176.28125 112.777344 146.457031 C 112.777344 103.710938 147.476562 68.9375 190.128906 68.9375 C 219.894531 68.9375 247.359375 86.367188 260.109375 113.347656 Z M 260.109375 113.347656 " fill-opacity="1" fill-rule="nonzero"/><g clip-path="url(#99004ee62a)"><path fill="#141414" d="M 96.472656 171.679688 C 97.671875 169.136719 100.691406 168.054688 103.242188 169.253906 C 105.78125 170.460938 106.863281 173.496094 105.660156 176.042969 C 94.046875 200.613281 92.578125 220.765625 101.738281 229.9375 C 110.902344 239.121094 131.007812 237.644531 155.53125 226.003906 C 176.957031 215.886719 200.316406 198.730469 221.304688 177.695312 C 242.300781 156.652344 259.417969 133.246094 269.515625 111.773438 C 281.125 87.203125 282.59375 67.050781 273.4375 57.875 C 264.28125 48.695312 244.171875 50.167969 219.652344 61.804688 C 217.113281 63.011719 214.082031 61.921875 212.878906 59.382812 C 211.675781 56.839844 212.761719 53.800781 215.300781 52.59375 C 244.730469 38.628906 267.933594 37.945312 280.628906 50.671875 C 293.324219 63.394531 292.640625 86.644531 278.710938 116.128906 C 268.132812 138.628906 250.300781 163.050781 228.496094 184.902344 C 206.699219 206.746094 182.328125 224.621094 159.875 235.21875 C 144.441406 242.546875 130.71875 246.214844 119.328125 246.214844 C 109 246.214844 100.585938 243.195312 94.550781 237.144531 C 81.851562 224.421875 82.535156 201.171875 96.472656 171.679688 Z M 96.472656 171.679688 " fill-opacity="1" fill-rule="nonzero"/></g><path fill="#ffbd1f" d="M 127.378906 72.554688 L 148.355469 77.722656 L 178.972656 58.402344 L 146.171875 46.429688 Z M 214.285156 81.996094 L 219.019531 84.09375 L 233.65625 67.828125 L 236.183594 49.554688 Z M 208.726562 90.320312 L 210.398438 93.515625 L 218.824219 84.308594 L 214.132812 82.230469 Z M 241.058594 93.859375 L 256.601562 100.75 L 260.289062 68.40625 Z M 209.289062 93.5 L 227.253906 111.683594 L 240.632812 93.972656 L 219.089844 84.425781 L 210.347656 93.984375 L 208.554688 90.578125 L 199.445312 104.21875 L 204.457031 106.976562 Z M 114.964844 110.222656 L 122.496094 114.058594 L 158.1875 101.210938 L 123.574219 101.96875 Z M 177.039062 78.34375 L 173.515625 114.457031 L 184.390625 99.332031 Z M 204.703125 107.109375 L 222.074219 116.671875 L 224.769531 114.96875 L 227.082031 111.90625 L 209.402344 94.003906 Z M 129.984375 117.875 L 169.035156 120.6875 L 173.195312 114.902344 L 176.890625 77.074219 L 184.585938 99.058594 L 200.84375 76.449219 L 208.574219 90.054688 L 213.875 82.113281 L 201.851562 76.785156 L 201.863281 76.6875 L 206.136719 40.34375 L 177.074219 76.910156 L 177.011719 76.914062 L 148.15625 78.417969 L 123.871094 101.6875 L 159.871094 100.898438 L 122.832031 114.230469 Z M 114.753906 110.421875 L 104.015625 120.710938 L 122.140625 114.1875 Z M 169.359375 120.710938 L 172.605469 120.945312 L 173.144531 115.449219 Z M 184.304688 121.785156 L 185.070312 121.839844 L 185.605469 122.222656 L 184.996094 120.257812 Z M 100.363281 121.53125 L 101.089844 123.132812 L 102.886719 121.410156 Z M 222.351562 116.824219 L 243.355469 128.382812 L 227.277344 112.105469 L 224.9375 115.191406 Z M 185.976562 122.488281 L 194.683594 128.726562 L 184.5 99.652344 L 173.464844 115.003906 L 172.882812 120.960938 L 184.011719 121.761719 L 185.046875 119.484375 Z M 195.074219 129.003906 L 196.253906 129.851562 L 204.363281 107.238281 L 199.046875 104.3125 L 208.402344 90.308594 L 200.816406 76.957031 L 184.699219 99.375 Z M 195.230469 129.457031 L 195.804688 131.09375 L 196.15625 130.117188 Z M 196.484375 130.015625 L 198.578125 131.515625 L 221.808594 116.839844 L 204.605469 107.375 Z M 195.949219 131.507812 L 196.429688 132.871094 L 198.328125 131.671875 L 196.386719 130.285156 Z M 195.800781 131.921875 L 195.175781 133.664062 L 196.1875 133.023438 Z M 186.109375 122.925781 L 190.375 136.695312 L 194.796875 133.902344 L 195.65625 131.507812 L 194.839844 129.175781 Z M 190.457031 136.96875 L 191.957031 141.816406 L 194.648438 134.324219 Z M 184.183594 122.050781 L 172.390625 148.054688 L 190.132812 136.847656 L 185.742188 122.660156 L 184.972656 122.109375 Z M 196.519531 133.140625 L 201.921875 148.570312 L 217.191406 145.1875 L 198.566406 131.847656 Z M 172.855469 121.238281 L 170.09375 149.507812 L 171.964844 148.324219 L 183.890625 122.03125 Z M 192.09375 142.253906 L 194.554688 150.207031 L 201.652344 148.632812 L 196.28125 133.289062 L 195.023438 134.082031 Z M 191.941406 142.6875 L 188.785156 151.488281 L 194.285156 150.265625 Z M 151.308594 145.816406 L 157.5625 153.734375 L 170.503906 151.550781 L 171.761719 148.78125 L 169.765625 150.039062 L 172.578125 121.21875 L 169.171875 120.972656 Z M 151.140625 146.046875 L 143.96875 156.023438 L 157.253906 153.785156 Z M 130.121094 119.4375 L 133.160156 157.847656 L 143.582031 156.089844 L 150.964844 145.824219 Z M 101.253906 123.359375 L 126.617188 158.949219 L 132.886719 157.894531 L 129.773438 118.554688 L 151.128906 145.589844 L 168.847656 120.949219 L 129.910156 118.144531 L 129.886719 118.132812 L 122.476562 114.359375 L 103.523438 121.179688 Z M 126.792969 159.199219 L 133.765625 168.980469 L 132.910156 158.167969 Z M 133.183594 158.121094 L 134.070312 169.320312 L 143.351562 156.40625 Z M 200.515625 169.464844 L 208.949219 169.464844 L 201.746094 148.894531 L 194.636719 150.46875 Z M 209.238281 169.464844 L 251.082031 169.464844 L 217.492188 145.402344 L 202.015625 148.832031 Z M 251.554688 169.464844 L 271.320312 169.464844 L 249.058594 159.566406 L 249.316406 159.433594 L 290.945312 138.042969 L 280.984375 97.25 L 268.90625 110.738281 L 275.355469 132.566406 L 275.210938 132.601562 L 217.851562 145.320312 Z M 84.003906 155.492188 L 94.988281 177.699219 L 95.726562 164.160156 L 126.316406 159 L 101.050781 123.550781 L 87.914062 136.140625 Z M 134.101562 169.746094 L 135.472656 187.035156 L 162.410156 160.316406 L 157.449219 154.03125 L 143.738281 156.34375 Z M 209.335938 169.738281 L 215.65625 187.789062 L 258.175781 174.542969 L 251.46875 169.738281 Z M 94.710938 187.890625 L 99.789062 188.027344 L 95.207031 178.761719 Z M 100.101562 188.035156 L 133.554688 188.9375 L 135.214844 187.289062 L 133.808594 169.515625 L 126.492188 159.25 L 95.988281 164.394531 L 95.238281 178.203125 Z M 133.933594 188.949219 L 135.347656 188.988281 L 135.242188 187.648438 Z M 162.777344 160.335938 L 185.523438 189.128906 L 169.773438 153.398438 Z M 186.644531 191 L 192.796875 204.957031 L 221.300781 200.8125 L 187.28125 191.800781 Z M 100.238281 188.316406 L 111.414062 210.898438 L 133.28125 189.207031 Z M 133.640625 228.839844 L 158.613281 229.933594 L 154.265625 225.839844 Z M 164.570312 209.335938 L 203.535156 230.003906 L 192.632812 205.257812 Z M 204.695312 231.953125 L 206.789062 232.042969 L 204.109375 230.621094 Z M 172.03125 242.191406 L 209.226562 242.910156 L 204.511719 232.21875 L 159.339844 230.238281 Z M 209.652344 243.195312 L 209.433594 243.191406 L 171.921875 242.464844 L 158.921875 230.222656 L 132.171875 229.050781 L 132.160156 228.777344 L 154.359375 225.546875 L 159.035156 229.953125 L 204.386719 231.9375 L 203.714844 230.414062 L 163.695312 209.183594 L 192.515625 205 L 185.964844 190.136719 L 162.582031 160.53125 L 135.5 187.394531 L 135.648438 189.269531 L 133.664062 189.21875 L 111.335938 211.363281 L 99.929688 188.304688 L 94.417969 188.160156 L 94.957031 178.261719 L 83.714844 155.53125 L 87.660156 136 L 87.691406 135.96875 L 100.890625 123.324219 L 99.929688 121.398438 L 103.375 120.941406 L 114.492188 110.289062 L 92.707031 99.1875 L 92.832031 98.945312 L 114.703125 110.089844 L 123.167969 101.980469 L 105.59375 102.367188 L 126.917969 72.722656 L 125.824219 72.453125 L 125.890625 72.183594 L 127.09375 72.484375 L 146.070312 46.101562 L 179.59375 58.332031 L 148.402344 78.019531 L 148.34375 78.003906 L 127.207031 72.792969 L 106.140625 102.078125 L 123.460938 101.695312 L 148.039062 78.152344 L 176.933594 76.640625 L 206.523438 39.417969 L 202.148438 76.617188 L 214.03125 81.882812 L 236.636719 48.378906 L 233.917969 67.953125 L 233.886719 67.984375 L 219.285156 84.210938 L 240.800781 93.746094 L 260.675781 67.433594 L 256.835938 101.152344 L 240.890625 94.085938 L 227.449219 111.882812 L 244.882812 129.539062 L 222.085938 116.992188 L 198.820312 131.6875 L 217.550781 145.105469 L 275.007812 132.363281 L 268.597656 110.671875 L 281.128906 96.675781 L 281.191406 96.929688 L 291.265625 138.1875 L 249.699219 159.546875 L 272.617188 169.738281 L 251.941406 169.738281 L 258.789062 174.644531 L 215.484375 188.132812 L 215.441406 188.007812 L 209.042969 169.738281 L 200.3125 169.738281 L 200.28125 169.640625 L 194.367188 150.53125 L 188.355469 151.863281 L 191.804688 142.25 L 190.21875 137.121094 L 172.183594 148.511719 L 170.695312 151.800781 L 170.621094 151.8125 L 157.757812 153.980469 L 162.605469 160.121094 L 169.863281 152.917969 L 186.203125 189.992188 L 187.4375 191.554688 L 222.675781 200.894531 L 192.914062 205.21875 L 203.929688 230.214844 L 207.996094 232.371094 L 204.820312 232.230469 L 209.652344 243.195312 " fill-opacity="1" fill-rule="nonzero"/><path fill="#ffbd1f" d="M 160.195312 101.054688 C 160.195312 101.699219 159.675781 102.222656 159.027344 102.222656 C 158.382812 102.222656 157.859375 101.699219 157.859375 101.054688 C 157.859375 100.410156 158.382812 99.886719 159.027344 99.886719 C 159.675781 99.886719 160.195312 100.410156 160.195312 101.054688 " fill-opacity="1" fill-rule="nonzero"/><path fill="#ffbd1f" d="M 203.167969 76.703125 C 203.167969 77.347656 202.644531 77.871094 202 77.871094 C 201.355469 77.871094 200.832031 77.347656 200.832031 76.703125 C 200.832031 76.058594 201.355469 75.535156 202 75.535156 C 202.644531 75.535156 203.167969 76.058594 203.167969 76.703125 " fill-opacity="1" fill-rule="nonzero"/><path fill="#ffbd1f" d="M 210.515625 93.75 C 210.515625 94.398438 209.992188 94.917969 209.347656 94.917969 C 208.703125 94.917969 208.179688 94.398438 208.179688 93.75 C 208.179688 93.105469 208.703125 92.582031 209.347656 92.582031 C 209.992188 92.582031 210.515625 93.105469 210.515625 93.75 " fill-opacity="1" fill-rule="nonzero"/><path fill="#ffbd1f" d="M 200.414062 104.265625 C 200.414062 104.910156 199.890625 105.433594 199.246094 105.433594 C 198.601562 105.433594 198.078125 104.910156 198.078125 104.265625 C 198.078125 103.621094 198.601562 103.097656 199.246094 103.097656 C 199.890625 103.097656 200.414062 103.621094 200.414062 104.265625 " fill-opacity="1" fill-rule="nonzero"/><path fill="#ffbd1f" d="M 245.289062 128.960938 C 245.289062 129.605469 244.765625 130.128906 244.121094 130.128906 C 243.476562 130.128906 242.953125 129.605469 242.953125 128.960938 C 242.953125 128.316406 243.476562 127.792969 244.121094 127.792969 C 244.765625 127.792969 245.289062 128.316406 245.289062 128.960938 " fill-opacity="1" fill-rule="nonzero"/><path fill="#ffbd1f" d="M 269.921875 110.707031 C 269.921875 111.351562 269.398438 111.875 268.753906 111.875 C 268.109375 111.875 267.585938 111.351562 267.585938 110.707031 C 267.585938 110.0625 268.109375 109.539062 268.753906 109.539062 C 269.398438 109.539062 269.921875 110.0625 269.921875 110.707031 " fill-opacity="1" fill-rule="nonzero"/><path fill="#ffbd1f" d="M 276.347656 132.464844 C 276.347656 133.109375 275.828125 133.632812 275.179688 133.632812 C 274.535156 133.632812 274.011719 133.109375 274.011719 132.464844 C 274.011719 131.820312 274.535156 131.296875 275.179688 131.296875 C 275.828125 131.296875 276.347656 131.820312 276.347656 132.464844 " fill-opacity="1" fill-rule="nonzero"/><path fill="#ffbd1f" d="M 273.136719 170.769531 C 273.136719 171.414062 272.613281 171.9375 271.964844 171.9375 C 271.320312 171.9375 270.796875 171.414062 270.796875 170.769531 C 270.796875 170.125 271.320312 169.601562 271.964844 169.601562 C 272.613281 169.601562 273.136719 170.125 273.136719 170.769531 " fill-opacity="1" fill-rule="nonzero"/><path fill="#ffbd1f" d="M 250.546875 159.554688 C 250.546875 160.199219 250.023438 160.722656 249.378906 160.722656 C 248.734375 160.722656 248.210938 160.199219 248.210938 159.554688 C 248.210938 158.910156 248.734375 158.386719 249.378906 158.386719 C 250.023438 158.386719 250.546875 158.910156 250.546875 159.554688 " fill-opacity="1" fill-rule="nonzero"/><path fill="#ffbd1f" d="M 223.15625 200.855469 C 223.15625 201.5 222.632812 202.023438 221.988281 202.023438 C 221.34375 202.023438 220.820312 201.5 220.820312 200.855469 C 220.820312 200.210938 221.34375 199.6875 221.988281 199.6875 C 222.632812 199.6875 223.15625 200.210938 223.15625 200.855469 " fill-opacity="1" fill-rule="nonzero"/><path fill="#ffbd1f" d="M 189.738281 151.675781 C 189.738281 152.320312 189.214844 152.84375 188.570312 152.84375 C 187.921875 152.84375 187.402344 152.320312 187.402344 151.675781 C 187.402344 151.027344 187.921875 150.507812 188.570312 150.507812 C 189.214844 150.507812 189.738281 151.027344 189.738281 151.675781 " fill-opacity="1" fill-rule="nonzero"/><path fill="#ffbd1f" d="M 201.582031 169.601562 C 201.582031 170.246094 201.058594 170.769531 200.414062 170.769531 C 199.769531 170.769531 199.246094 170.246094 199.246094 169.601562 C 199.246094 168.957031 199.769531 168.433594 200.414062 168.433594 C 201.058594 168.433594 201.582031 168.957031 201.582031 169.601562 " fill-opacity="1" fill-rule="nonzero"/><path fill="#ffbd1f" d="M 187.359375 191.679688 C 187.359375 192.324219 186.835938 192.847656 186.191406 192.847656 C 185.546875 192.847656 185.023438 192.324219 185.023438 191.679688 C 185.023438 191.03125 185.546875 190.507812 186.191406 190.507812 C 186.835938 190.507812 187.359375 191.03125 187.359375 191.679688 " fill-opacity="1" fill-rule="nonzero"/><path fill="#ffbd1f" d="M 156.339844 224.902344 C 156.339844 225.550781 155.816406 226.070312 155.171875 226.070312 C 154.527344 226.070312 154.003906 225.550781 154.003906 224.902344 C 154.003906 224.261719 154.527344 223.738281 155.171875 223.738281 C 155.816406 223.738281 156.339844 224.261719 156.339844 224.902344 " fill-opacity="1" fill-rule="nonzero"/><path fill="#ffbd1f" d="M 208.5625 232.207031 C 208.5625 232.851562 208.039062 233.375 207.394531 233.375 C 206.746094 233.375 206.226562 232.851562 206.226562 232.207031 C 206.226562 231.5625 206.746094 231.039062 207.394531 231.039062 C 208.039062 231.039062 208.5625 231.5625 208.5625 232.207031 " fill-opacity="1" fill-rule="nonzero"/><path fill="#ffbd1f" d="M 136.664062 189.128906 C 136.664062 189.773438 136.144531 190.296875 135.496094 190.296875 C 134.851562 190.296875 134.328125 189.773438 134.328125 189.128906 C 134.328125 188.484375 134.851562 187.960938 135.496094 187.960938 C 136.144531 187.960938 136.664062 188.484375 136.664062 189.128906 " fill-opacity="1" fill-rule="nonzero"/><path fill="#ffbd1f" d="M 135.207031 169.601562 C 135.207031 170.246094 134.683594 170.769531 134.039062 170.769531 C 133.394531 170.769531 132.867188 170.246094 132.867188 169.601562 C 132.867188 168.957031 133.394531 168.433594 134.039062 168.433594 C 134.683594 168.433594 135.207031 168.957031 135.207031 169.601562 " fill-opacity="1" fill-rule="nonzero"/><path fill="#ffbd1f" d="M 97.027344 164.277344 C 97.027344 164.921875 96.503906 165.445312 95.859375 165.445312 C 95.210938 165.445312 94.6875 164.921875 94.6875 164.277344 C 94.6875 163.632812 95.210938 163.109375 95.859375 163.109375 C 96.503906 163.109375 97.027344 163.632812 97.027344 164.277344 " fill-opacity="1" fill-rule="nonzero"/><path fill="#ffbd1f" d="M 88.953125 136.070312 C 88.953125 136.714844 88.433594 137.238281 87.785156 137.238281 C 87.140625 137.238281 86.617188 136.714844 86.617188 136.070312 C 86.617188 135.425781 87.140625 134.902344 87.785156 134.902344 C 88.433594 134.902344 88.953125 135.425781 88.953125 136.070312 " fill-opacity="1" fill-rule="nonzero"/><path fill="#ffbd1f" d="M 101.433594 121.039062 C 101.433594 121.6875 100.910156 122.207031 100.265625 122.207031 C 99.617188 122.207031 99.097656 121.6875 99.097656 121.039062 C 99.097656 120.394531 99.617188 119.871094 100.265625 119.871094 C 100.910156 119.871094 101.433594 120.394531 101.433594 121.039062 " fill-opacity="1" fill-rule="nonzero"/><path fill="#ffbd1f" d="M 107.035156 102.222656 C 107.035156 102.867188 106.511719 103.390625 105.863281 103.390625 C 105.21875 103.390625 104.695312 102.867188 104.695312 102.222656 C 104.695312 101.578125 105.21875 101.054688 105.863281 101.054688 C 106.511719 101.054688 107.035156 101.578125 107.035156 102.222656 " fill-opacity="1" fill-rule="nonzero"/><path fill="#ffbd1f" d="M 127.027344 72.320312 C 127.027344 72.964844 126.503906 73.488281 125.855469 73.488281 C 125.210938 73.488281 124.6875 72.964844 124.6875 72.320312 C 124.6875 71.671875 125.210938 71.152344 125.855469 71.152344 C 126.503906 71.152344 127.027344 71.671875 127.027344 72.320312 " fill-opacity="1" fill-rule="nonzero"/><path fill="#ffbd1f" d="M 149.546875 77.871094 C 149.546875 78.515625 149.023438 79.039062 148.378906 79.039062 C 147.734375 79.039062 147.210938 78.515625 147.210938 77.871094 C 147.210938 77.226562 147.734375 76.703125 148.378906 76.703125 C 149.023438 76.703125 149.546875 77.226562 149.546875 77.871094 " fill-opacity="1" fill-rule="nonzero"/><path fill="#ffbd1f" d="M 180.453125 58.367188 C 180.453125 59.011719 179.925781 59.535156 179.285156 59.535156 C 178.636719 59.535156 178.113281 59.011719 178.113281 58.367188 C 178.113281 57.722656 178.636719 57.199219 179.285156 57.199219 C 179.925781 57.199219 180.453125 57.722656 180.453125 58.367188 " fill-opacity="1" fill-rule="nonzero"/><path fill="#ffbd1f" d="M 234.953125 67.890625 C 234.953125 68.535156 234.433594 69.058594 233.785156 69.058594 C 233.140625 69.058594 232.617188 68.535156 232.617188 67.890625 C 232.617188 67.246094 233.140625 66.71875 233.785156 66.71875 C 234.433594 66.71875 234.953125 67.246094 234.953125 67.890625 " fill-opacity="1" fill-rule="nonzero"/><path fill="#ffbd1f" d="M 128.773438 56.546875 L 170.035156 74.296875 L 169.210938 48.09375 L 167.222656 39.855469 L 146.121094 46.265625 L 128.417969 55.742188 Z M 170.324219 74.71875 L 170.453125 78.910156 L 174.949219 76.710938 Z M 177.46875 76.628906 L 219.914062 89.65625 L 206.105469 40.097656 L 206.011719 40.0625 Z M 128.9375 56.917969 L 144.304688 91.703125 L 170.183594 79.042969 L 170.046875 74.597656 Z M 220.226562 89.753906 L 240.34375 95.925781 L 260.484375 67.921875 L 236.644531 50.347656 L 206.417969 40.203125 Z M 106.105469 76.898438 L 124.769531 97.746094 L 135.261719 83.398438 Z M 124.960938 97.957031 L 126.957031 100.191406 L 144.058594 91.824219 L 128.566406 56.757812 L 127.921875 56.480469 L 104.933594 75.992188 L 105.796875 76.550781 L 105.796875 76.546875 L 105.894531 76.566406 L 135.734375 83.222656 Z M 124.792969 98.183594 L 121.300781 102.960938 L 126.703125 100.316406 Z M 220.316406 90.066406 L 226.925781 113.785156 L 227.0625 114.398438 L 240.175781 96.164062 Z M 227.148438 114.757812 L 227.238281 115.164062 L 256.460938 101.539062 L 256.449219 101.15625 L 240.453125 96.246094 Z M 226.933594 115.054688 L 226.660156 115.433594 L 226.984375 115.28125 Z M 177.507812 78.449219 L 191.582031 119.9375 L 222.085938 115.222656 L 222.503906 111.503906 Z M 92.769531 99.066406 L 86.164062 120.148438 L 120.765625 103.21875 L 124.605469 97.972656 L 105.839844 77.015625 Z M 85.898438 120.996094 L 99.167969 132.75 L 120.417969 103.695312 L 86.050781 120.511719 Z M 170.464844 79.210938 L 172.535156 145.234375 L 172.917969 144.503906 L 176.617188 78.757812 L 169.53125 49.40625 L 170.3125 74.414062 L 175.613281 76.695312 Z M 127.148438 100.402344 L 168.015625 146.046875 L 144.167969 92.078125 Z M 256.738281 101.710938 L 257.984375 146.605469 L 290.546875 138.335938 L 290.953125 138.054688 L 281.753906 97.023438 L 261.414062 68.265625 L 257.957031 101.144531 Z M 172.554688 145.792969 L 172.65625 149.101562 L 172.878906 145.171875 Z M 227.300781 115.4375 L 235.683594 152.269531 L 257.710938 146.675781 L 256.46875 101.839844 Z M 84.789062 121.128906 L 82.890625 155.007812 L 99.003906 132.976562 L 85.582031 121.085938 L 85.710938 120.675781 Z M 225.183594 114.746094 L 225.160156 114.925781 L 219.808594 156.300781 L 235.417969 152.335938 L 227.046875 115.558594 L 225.820312 116.128906 L 226.851562 114.699219 L 226.65625 113.851562 L 220 89.972656 L 177.003906 76.777344 L 205.730469 39.96875 L 205.28125 39.820312 L 169.195312 38.734375 L 169.488281 48.058594 L 176.890625 78.734375 L 176.890625 78.753906 L 173.226562 143.914062 L 185.265625 120.914062 L 191.304688 119.980469 L 176.964844 77.710938 L 222.796875 111.375 L 222.371094 115.179688 Z M 222.339844 115.464844 L 217.703125 156.835938 L 219.519531 156.371094 L 224.863281 115.074219 Z M 191.671875 120.203125 L 205.175781 160.015625 L 217.417969 156.90625 L 222.054688 115.507812 Z M 257.992188 146.886719 L 258.375 160.769531 L 289.90625 138.785156 Z M 237.550781 160.460938 L 248.355469 167.757812 L 258.105469 160.960938 L 257.714844 146.957031 L 235.746094 152.535156 Z M 126.699219 157.351562 L 126.78125 157.378906 L 158.714844 169.292969 L 167.097656 150.671875 L 125.699219 155.621094 L 129.773438 119.308594 L 105.550781 138.40625 L 124.730469 155.398438 L 124.992188 159.019531 Z M 170.042969 153.679688 L 168.375 169.359375 L 184.761719 165.199219 Z M 158.972656 169.390625 L 162.730469 170.792969 L 168.089844 169.429688 L 169.820312 153.160156 L 185.097656 165.113281 L 204.910156 160.082031 L 191.394531 120.246094 L 185.445312 121.164062 L 173.1875 144.582031 L 172.757812 152.257812 L 172.480469 152.253906 L 172.292969 146.289062 L 170.050781 150.570312 L 169.808594 150.441406 L 172.277344 145.730469 L 170.195312 79.34375 L 144.417969 91.957031 L 168.972656 147.527344 L 126.890625 100.53125 L 120.949219 103.4375 L 99.375 132.933594 L 105.34375 138.222656 L 130.121094 118.683594 L 126.011719 155.304688 L 167.550781 150.339844 Z M 158.863281 169.640625 L 157.777344 172.050781 L 162.261719 170.910156 Z M 163.1875 170.960938 L 167.746094 172.660156 L 168.058594 169.722656 Z M 237.640625 160.851562 L 240.464844 173.261719 L 248.113281 167.925781 Z M 248.601562 167.921875 L 258.484375 174.59375 L 258.113281 161.289062 Z M 125.019531 159.382812 L 126.519531 179.984375 L 157.4375 172.136719 L 158.601562 169.542969 L 126.765625 157.667969 Z M 205.265625 160.273438 L 214.113281 186.359375 L 217.382812 157.199219 Z M 219.769531 156.59375 L 215.785156 187.378906 L 234.625 158.484375 L 237.214844 160.234375 L 235.476562 152.605469 Z M 185.371094 165.328125 L 213.964844 187.699219 L 214.042969 187.003906 L 205 160.34375 Z M 124.761719 159.632812 L 96.132812 187.699219 L 126.246094 180.054688 Z M 214.21875 187.898438 L 214.390625 188.03125 L 214.25 187.621094 Z M 168.011719 172.761719 L 213.726562 189.816406 L 213.929688 188.019531 L 185.035156 165.414062 L 168.34375 169.648438 Z M 214.785156 188.339844 L 216.695312 189.832031 L 240.21875 173.429688 L 237.304688 160.628906 L 234.703125 158.871094 L 215.355469 188.539062 L 219.480469 156.664062 L 217.667969 157.125 L 214.324219 186.976562 Z M 240.527344 173.550781 L 247.472656 204.050781 L 248.265625 203.636719 L 271.878906 201.601562 L 285.882812 172.769531 L 291.8125 138.300781 L 290.660156 138.589844 L 258.382812 161.097656 L 258.773438 175.121094 L 248.359375 168.089844 Z M 246.183594 205.050781 L 246 205.148438 L 246.09375 205.144531 Z M 168.582031 208.847656 L 169.597656 209.050781 L 245.355469 205.183594 L 246.816406 204.398438 L 247.183594 204.023438 L 240.285156 173.71875 L 216.6875 190.175781 L 214.949219 188.816406 L 215.742188 191.164062 Z M 168.09375 209.035156 L 167.804688 209.140625 L 168.464844 209.109375 Z M 164.132812 209.261719 L 165.515625 210.304688 L 165.105469 208.164062 L 168.070312 208.75 L 215.398438 191 L 214.550781 188.503906 L 214.183594 188.21875 L 213.960938 190.195312 L 213.796875 190.132812 L 167.984375 173.042969 Z M 170.710938 209.269531 L 219.667969 218.914062 L 244.785156 205.484375 Z M 220.09375 218.996094 L 230.613281 221.070312 L 245.8125 205.433594 L 245.429688 205.453125 Z M 94.8125 187.898438 L 111.488281 211.289062 L 129.785156 228.648438 L 126.269531 180.335938 L 95.210938 188.21875 L 95.578125 187.863281 L 124.734375 159.273438 L 124.464844 155.527344 L 105.332031 138.582031 L 83.859375 155.511719 Z M 165.847656 210.550781 L 194.695312 232.261719 L 219.285156 219.117188 L 169.578125 209.328125 L 166.046875 209.507812 L 167.578125 208.933594 L 165.453125 208.511719 Z M 230.710938 221.367188 L 210.042969 242.628906 L 248.929688 224.957031 Z M 132.179688 228.914062 L 171.792969 242.84375 L 165.59375 210.707031 L 163.84375 209.386719 L 163.851562 209.308594 L 167.71875 172.945312 L 162.71875 171.078125 L 157.632812 172.371094 Z M 194.9375 232.445312 L 209.160156 243.144531 L 230.386719 221.304688 L 219.710938 219.203125 Z M 172.523438 244.425781 L 209.886719 244.226562 L 209.027344 243.390625 L 208.832031 243.480469 L 208.964844 243.34375 L 194.671875 232.585938 Z M 210.710938 244.5 L 171.425781 244.699219 L 194.429688 232.402344 L 165.925781 210.953125 L 172.15625 243.265625 L 131.804688 229.074219 L 157.292969 172.457031 L 126.539062 180.265625 L 130.109375 229.339844 L 111.28125 211.46875 L 94.5625 188.023438 L 94.558594 188.003906 L 83.535156 155.417969 L 83.609375 155.355469 L 105.121094 138.394531 L 99.210938 133.160156 L 82.5625 155.921875 L 84.523438 120.953125 L 85.824219 120.316406 L 92.515625 98.953125 L 92.523438 98.9375 L 105.648438 76.800781 L 104.535156 75.960938 L 127.878906 56.164062 L 128.402344 56.386719 L 128.0625 55.621094 L 146.015625 46.011719 L 167.425781 39.507812 L 169.171875 46.742188 L 168.78125 38.449219 L 168.929688 38.453125 L 205.332031 39.546875 L 205.914062 39.742188 L 206.191406 39.382812 L 206.332031 39.882812 L 236.773438 50.097656 L 236.789062 50.113281 L 260.863281 67.859375 L 260.785156 67.96875 L 240.625 96.011719 L 256.71875 100.949219 L 256.730469 101.414062 L 257.699219 100.960938 L 261.21875 67.511719 L 282.019531 96.933594 L 291.257812 138.15625 L 292.15625 137.929688 L 292.121094 138.136719 L 286.148438 172.855469 L 286.140625 172.875 L 272.058594 201.859375 L 248.316406 203.910156 L 246.984375 204.621094 L 246.496094 205.125 L 247.453125 205.074219 L 250.390625 224.613281 L 272.972656 201.632812 L 273.167969 201.828125 L 250.203125 225.199219 L 250.160156 224.925781 L 247.214844 205.363281 L 246.214844 205.414062 L 230.9375 221.132812 L 249.828125 224.851562 L 209.316406 243.261719 L 210.710938 244.5 " fill-opacity="1" fill-rule="nonzero"/><path fill="#ffbd1f" d="M 260.671875 174.859375 C 260.671875 175.988281 259.757812 176.902344 258.628906 176.902344 C 257.5 176.902344 256.582031 175.988281 256.582031 174.859375 C 256.582031 173.730469 257.5 172.8125 258.628906 172.8125 C 259.757812 172.8125 260.671875 173.730469 260.671875 174.859375 " fill-opacity="1" fill-rule="nonzero"/><path fill="#ffbd1f" d="M 235.539062 158.679688 C 235.539062 159.164062 235.148438 159.554688 234.664062 159.554688 C 234.179688 159.554688 233.785156 159.164062 233.785156 158.679688 C 233.785156 158.195312 234.179688 157.800781 234.664062 157.800781 C 235.148438 157.800781 235.539062 158.195312 235.539062 158.679688 " fill-opacity="1" fill-rule="nonzero"/><path fill="#ffbd1f" d="M 87.785156 121.039062 C 87.785156 122.167969 86.871094 123.085938 85.742188 123.085938 C 84.613281 123.085938 83.695312 122.167969 83.695312 121.039062 C 83.695312 119.910156 84.613281 118.996094 85.742188 118.996094 C 86.871094 118.996094 87.785156 119.910156 87.785156 121.039062 " fill-opacity="1" fill-rule="nonzero"/><g clip-path="url(#b730dca951)"><path fill="#ffbd1f" d="M 85.742188 155.464844 C 85.742188 156.59375 84.824219 157.507812 83.695312 157.507812 C 82.566406 157.507812 81.652344 156.59375 81.652344 155.464844 C 81.652344 154.335938 82.566406 153.417969 83.695312 153.417969 C 84.824219 153.417969 85.742188 154.335938 85.742188 155.464844 " fill-opacity="1" fill-rule="nonzero"/></g><g clip-path="url(#6ff5fa64e0)"><path fill="#ffbd1f" d="M 169.371094 39.683594 C 169.371094 40.8125 168.453125 41.726562 167.324219 41.726562 C 166.195312 41.726562 165.28125 40.8125 165.28125 39.683594 C 165.28125 38.554688 166.195312 37.636719 167.324219 37.636719 C 168.453125 37.636719 169.371094 38.554688 169.371094 39.683594 " fill-opacity="1" fill-rule="nonzero"/></g><path fill="#ffbd1f" d="M 148.125 46.132812 C 148.125 47.261719 147.210938 48.179688 146.082031 48.179688 C 144.953125 48.179688 144.035156 47.261719 144.035156 46.132812 C 144.035156 45.003906 144.953125 44.089844 146.082031 44.089844 C 147.210938 44.089844 148.125 45.003906 148.125 46.132812 " fill-opacity="1" fill-rule="nonzero"/><path fill="#ffbd1f" d="M 129.949219 56.324219 C 129.949219 57.453125 129.03125 58.367188 127.902344 58.367188 C 126.773438 58.367188 125.855469 57.453125 125.855469 56.324219 C 125.855469 55.191406 126.773438 54.277344 127.902344 54.277344 C 129.03125 54.277344 129.949219 55.191406 129.949219 56.324219 " fill-opacity="1" fill-rule="nonzero"/><path fill="#ffbd1f" d="M 107.910156 76.703125 C 107.910156 77.832031 106.996094 78.746094 105.863281 78.746094 C 104.734375 78.746094 103.820312 77.832031 103.820312 76.703125 C 103.820312 75.574219 104.734375 74.65625 105.863281 74.65625 C 106.996094 74.65625 107.910156 75.574219 107.910156 76.703125 " fill-opacity="1" fill-rule="nonzero"/><path fill="#ffbd1f" d="M 94.6875 99.007812 C 94.6875 100.136719 93.773438 101.054688 92.644531 101.054688 C 91.515625 101.054688 90.597656 100.136719 90.597656 99.007812 C 90.597656 97.878906 91.515625 96.964844 92.644531 96.964844 C 93.773438 96.964844 94.6875 97.878906 94.6875 99.007812 " fill-opacity="1" fill-rule="nonzero"/><path fill="#ffbd1f" d="M 96.734375 187.960938 C 96.734375 189.089844 95.820312 190.003906 94.6875 190.003906 C 93.558594 190.003906 92.644531 189.089844 92.644531 187.960938 C 92.644531 186.832031 93.558594 185.914062 94.6875 185.914062 C 95.820312 185.914062 96.734375 186.832031 96.734375 187.960938 " fill-opacity="1" fill-rule="nonzero"/><path fill="#ffbd1f" d="M 113.417969 211.367188 C 113.417969 212.5 112.503906 213.414062 111.375 213.414062 C 110.246094 213.414062 109.328125 212.5 109.328125 211.367188 C 109.328125 210.238281 110.246094 209.324219 111.375 209.324219 C 112.503906 209.324219 113.417969 210.238281 113.417969 211.367188 " fill-opacity="1" fill-rule="nonzero"/><path fill="#ffbd1f" d="M 134.039062 228.996094 C 134.039062 230.121094 133.121094 231.039062 131.992188 231.039062 C 130.863281 231.039062 129.949219 230.121094 129.949219 228.996094 C 129.949219 227.863281 130.863281 226.949219 131.992188 226.949219 C 133.121094 226.949219 134.039062 227.863281 134.039062 228.996094 " fill-opacity="1" fill-rule="nonzero"/><g clip-path="url(#9893b02168)"><path fill="#ffbd1f" d="M 174.019531 243.054688 C 174.019531 244.183594 173.105469 245.097656 171.976562 245.097656 C 170.847656 245.097656 169.929688 244.183594 169.929688 243.054688 C 169.929688 241.925781 170.847656 241.007812 171.976562 241.007812 C 173.105469 241.007812 174.019531 241.925781 174.019531 243.054688 " fill-opacity="1" fill-rule="nonzero"/></g><g clip-path="url(#573450d1ca)"><path fill="#ffbd1f" d="M 211.484375 243.054688 C 211.484375 244.183594 210.566406 245.097656 209.4375 245.097656 C 208.308594 245.097656 207.394531 244.183594 207.394531 243.054688 C 207.394531 241.925781 208.308594 241.007812 209.4375 241.007812 C 210.566406 241.007812 211.484375 241.925781 211.484375 243.054688 " fill-opacity="1" fill-rule="nonzero"/></g><path fill="#ffbd1f" d="M 258.628906 101.054688 C 258.628906 102.183594 257.714844 103.097656 256.582031 103.097656 C 255.453125 103.097656 254.539062 102.183594 254.539062 101.054688 C 254.539062 99.925781 255.453125 99.007812 256.582031 99.007812 C 257.714844 99.007812 258.628906 99.925781 258.628906 101.054688 " fill-opacity="1" fill-rule="nonzero"/><path fill="#ffbd1f" d="M 187.402344 121.039062 C 187.402344 122.167969 186.484375 123.085938 185.355469 123.085938 C 184.226562 123.085938 183.3125 122.167969 183.3125 121.039062 C 183.3125 119.910156 184.226562 118.996094 185.355469 118.996094 C 186.484375 118.996094 187.402344 119.910156 187.402344 121.039062 " fill-opacity="1" fill-rule="nonzero"/><path fill="#ffbd1f" d="M 249.378906 204.066406 C 249.378906 205.195312 248.464844 206.109375 247.335938 206.109375 C 246.203125 206.109375 245.289062 205.195312 245.289062 204.066406 C 245.289062 202.933594 246.203125 202.019531 247.335938 202.019531 C 248.464844 202.019531 249.378906 202.933594 249.378906 204.066406 " fill-opacity="1" fill-rule="nonzero"/><path fill="#ffbd1f" d="M 139.589844 83.3125 C 139.589844 84.441406 138.671875 85.355469 137.542969 85.355469 C 136.414062 85.355469 135.496094 84.441406 135.496094 83.3125 C 135.496094 82.183594 136.414062 81.265625 137.542969 81.265625 C 138.671875 81.265625 139.589844 82.183594 139.589844 83.3125 " fill-opacity="1" fill-rule="nonzero"/><path fill="#ffbd1f" d="M 251.425781 224.902344 C 251.425781 226.035156 250.507812 226.949219 249.378906 226.949219 C 248.25 226.949219 247.335938 226.035156 247.335938 224.902344 C 247.335938 223.777344 248.25 222.859375 249.378906 222.859375 C 250.507812 222.859375 251.425781 223.777344 251.425781 224.902344 " fill-opacity="1" fill-rule="nonzero"/><path fill="#ffbd1f" d="M 274.011719 201.730469 C 274.011719 202.859375 273.097656 203.773438 271.964844 203.773438 C 270.839844 203.773438 269.921875 202.859375 269.921875 201.730469 C 269.921875 200.601562 270.839844 199.6875 271.964844 199.6875 C 273.097656 199.6875 274.011719 200.601562 274.011719 201.730469 " fill-opacity="1" fill-rule="nonzero"/><path fill="#ffbd1f" d="M 288.058594 172.8125 C 288.058594 173.945312 287.144531 174.859375 286.015625 174.859375 C 284.886719 174.859375 283.972656 173.945312 283.972656 172.8125 C 283.972656 171.683594 284.886719 170.769531 286.015625 170.769531 C 287.144531 170.769531 288.058594 171.683594 288.058594 172.8125 " fill-opacity="1" fill-rule="nonzero"/><g clip-path="url(#65129dd0ac)"><path fill="#ffbd1f" d="M 293.152344 138.113281 C 293.152344 139.246094 292.234375 140.160156 291.105469 140.160156 C 289.976562 140.160156 289.058594 139.246094 289.058594 138.113281 C 289.058594 136.984375 289.976562 136.070312 291.105469 136.070312 C 292.234375 136.070312 293.152344 136.984375 293.152344 138.113281 " fill-opacity="1" fill-rule="nonzero"/></g><path fill="#ffbd1f" d="M 283.101562 96.964844 C 283.101562 98.09375 282.1875 99.007812 281.054688 99.007812 C 279.925781 99.007812 279.011719 98.09375 279.011719 96.964844 C 279.011719 95.835938 279.925781 94.917969 281.054688 94.917969 C 282.1875 94.917969 283.101562 95.835938 283.101562 96.964844 " fill-opacity="1" fill-rule="nonzero"/><path fill="#ffbd1f" d="M 262.71875 67.890625 C 262.71875 69.019531 261.804688 69.933594 260.671875 69.933594 C 259.542969 69.933594 258.628906 69.019531 258.628906 67.890625 C 258.628906 66.761719 259.542969 65.84375 260.671875 65.84375 C 261.804688 65.84375 262.71875 66.761719 262.71875 67.890625 " fill-opacity="1" fill-rule="nonzero"/><path fill="#ffbd1f" d="M 238.753906 50.222656 C 238.753906 51.351562 237.835938 52.269531 236.707031 52.269531 C 235.578125 52.269531 234.664062 51.351562 234.664062 50.222656 C 234.664062 49.09375 235.578125 48.179688 236.707031 48.179688 C 237.835938 48.179688 238.753906 49.09375 238.753906 50.222656 " fill-opacity="1" fill-rule="nonzero"/><g clip-path="url(#74e038c843)"><path fill="#ffbd1f" d="M 208.179688 39.683594 C 208.179688 40.8125 207.261719 41.726562 206.132812 41.726562 C 205.003906 41.726562 204.085938 40.8125 204.085938 39.683594 C 204.085938 38.554688 205.003906 37.636719 206.132812 37.636719 C 207.261719 37.636719 208.179688 38.554688 208.179688 39.683594 " fill-opacity="1" fill-rule="nonzero"/></g><path fill="#ffbd1f" d="M 229.230469 114.910156 C 229.230469 117.230469 227.347656 119.113281 225.023438 119.113281 C 222.703125 119.113281 220.820312 117.230469 220.820312 114.910156 C 220.820312 112.585938 222.703125 110.707031 225.023438 110.707031 C 227.347656 110.707031 229.230469 112.585938 229.230469 114.910156 " fill-opacity="1" fill-rule="nonzero"/><path fill="#ffbd1f" d="M 219.289062 187.960938 C 219.289062 190.011719 217.625 191.679688 215.570312 191.679688 C 213.515625 191.679688 211.851562 190.011719 211.851562 187.960938 C 211.851562 185.90625 213.515625 184.242188 215.570312 184.242188 C 217.625 184.242188 219.289062 185.90625 219.289062 187.960938 " fill-opacity="1" fill-rule="nonzero"/><path fill="#ffbd1f" d="M 176.753906 150.507812 C 176.753906 154.273438 173.699219 157.328125 169.929688 157.328125 C 166.160156 157.328125 163.105469 154.273438 163.105469 150.507812 C 163.105469 146.738281 166.160156 143.683594 169.929688 143.683594 C 173.699219 143.683594 176.753906 146.738281 176.753906 150.507812 " fill-opacity="1" fill-rule="nonzero"/><path fill="#ffbd1f" d="M 133.164062 118.996094 C 133.164062 120.769531 131.722656 122.210938 129.949219 122.210938 C 128.171875 122.210938 126.730469 120.769531 126.730469 118.996094 C 126.730469 117.21875 128.171875 115.78125 129.949219 115.78125 C 131.722656 115.78125 133.164062 117.21875 133.164062 118.996094 " fill-opacity="1" fill-rule="nonzero"/><path fill="#ffbd1f" d="M 168.496094 209.324219 C 168.496094 211.097656 167.054688 212.539062 165.28125 212.539062 C 163.503906 212.539062 162.0625 211.097656 162.0625 209.324219 C 162.0625 207.550781 163.503906 206.109375 165.28125 206.109375 C 167.054688 206.109375 168.496094 207.550781 168.496094 209.324219 " fill-opacity="1" fill-rule="nonzero"/><path fill="#ffbd1f" d="M 129.070312 155.464844 C 129.070312 157.238281 127.632812 158.679688 125.855469 158.679688 C 124.082031 158.679688 122.640625 157.238281 122.640625 155.464844 C 122.640625 153.6875 124.082031 152.25 125.855469 152.25 C 127.632812 152.25 129.070312 153.6875 129.070312 155.464844 " fill-opacity="1" fill-rule="nonzero"/><path fill="#ffbd1f" d="M 180.453125 76.703125 C 180.453125 78.476562 179.011719 79.917969 177.234375 79.917969 C 175.460938 79.917969 174.019531 78.476562 174.019531 76.703125 C 174.019531 74.925781 175.460938 73.488281 177.234375 73.488281 C 179.011719 73.488281 180.453125 74.925781 180.453125 76.703125 " fill-opacity="1" fill-rule="nonzero"/><g fill="#141414" fill-opacity="1"><g transform="translate(93.60117, 299.457196)"><g><path d="M 1.59375 -2.609375 C 1.894531 -2.921875 2.269531 -3.078125 2.71875 -3.078125 C 3.175781 -3.078125 3.550781 -2.921875 3.84375 -2.609375 C 4.144531 -2.304688 4.296875 -1.921875 4.296875 -1.453125 C 4.296875 -0.960938 4.144531 -0.5625 3.84375 -0.25 C 3.550781 0.0625 3.175781 0.21875 2.71875 0.21875 C 2.269531 0.21875 1.894531 0.0625 1.59375 -0.25 C 1.300781 -0.5625 1.15625 -0.960938 1.15625 -1.453125 C 1.15625 -1.921875 1.300781 -2.304688 1.59375 -2.609375 Z M 1.59375 -2.609375 "/></g></g></g><g fill="#141414" fill-opacity="1"><g transform="translate(101.850305, 299.457196)"><g><path d="M 17.46875 0 L 14.578125 0 L 5.25 -12.546875 L 5.25 0 L 2.296875 0 L 2.296875 -17.5 L 5.203125 -17.5 L 14.578125 -4.921875 L 14.578125 -17.5 L 17.46875 -17.5 Z M 17.46875 0 "/></g></g></g><g fill="#141414" fill-opacity="1"><g transform="translate(124.447172, 299.457196)"><g><path d="M 7.59375 -13.40625 C 9.882812 -13.40625 11.539062 -12.71875 12.5625 -11.34375 C 13.582031 -9.96875 14.003906 -8.035156 13.828125 -5.546875 L 3.78125 -5.546875 C 4.007812 -4.515625 4.488281 -3.703125 5.21875 -3.109375 C 5.957031 -2.515625 6.851562 -2.21875 7.90625 -2.21875 C 9.40625 -2.21875 10.65625 -2.738281 11.65625 -3.78125 L 13.171875 -2.15625 C 11.804688 -0.65625 9.972656 0.09375 7.671875 0.09375 C 5.617188 0.09375 3.972656 -0.523438 2.734375 -1.765625 C 1.492188 -3.003906 0.875 -4.625 0.875 -6.625 C 0.875 -8.625 1.5 -10.25 2.75 -11.5 C 4 -12.75 5.613281 -13.382812 7.59375 -13.40625 Z M 3.71875 -7.65625 L 11.328125 -7.65625 C 11.273438 -8.71875 10.914062 -9.554688 10.25 -10.171875 C 9.582031 -10.785156 8.707031 -11.09375 7.625 -11.09375 C 6.570312 -11.09375 5.695312 -10.785156 5 -10.171875 C 4.3125 -9.554688 3.882812 -8.71875 3.71875 -7.65625 Z M 3.71875 -7.65625 "/></g></g></g><g fill="#141414" fill-opacity="1"><g transform="translate(141.944838, 299.457196)"><g><path d="M 8.921875 -3.046875 L 9.65625 -0.84375 C 8.550781 -0.195312 7.457031 0.125 6.375 0.125 C 5.289062 0.125 4.398438 -0.195312 3.703125 -0.84375 C 3.003906 -1.5 2.65625 -2.46875 2.65625 -3.75 L 2.65625 -10.65625 L 0.78125 -10.65625 L 0.78125 -12.796875 L 2.65625 -12.796875 L 2.65625 -16.453125 L 5.5 -16.453125 L 5.5 -12.796875 L 9.421875 -12.796875 L 9.421875 -10.65625 L 5.5 -10.65625 L 5.5 -4.28125 C 5.5 -3.613281 5.613281 -3.144531 5.84375 -2.875 C 6.082031 -2.601562 6.441406 -2.46875 6.921875 -2.46875 C 7.453125 -2.46875 8.117188 -2.660156 8.921875 -3.046875 Z M 8.921875 -3.046875 "/></g></g></g><g fill="#141414" fill-opacity="1"><g transform="translate(154.918221, 299.457196)"><g><path d="M 17.171875 -17.5 L 17.171875 -7.25 C 17.171875 -4.96875 16.492188 -3.164062 15.140625 -1.84375 C 13.796875 -0.53125 11.941406 0.125 9.578125 0.125 C 7.210938 0.125 5.347656 -0.53125 3.984375 -1.84375 C 2.628906 -3.164062 1.953125 -4.96875 1.953125 -7.25 L 1.953125 -17.5 L 4.90625 -17.5 L 4.90625 -7.25 C 4.90625 -5.78125 5.320312 -4.625 6.15625 -3.78125 C 7 -2.945312 8.144531 -2.53125 9.59375 -2.53125 C 11.03125 -2.53125 12.160156 -2.945312 12.984375 -3.78125 C 13.804688 -4.613281 14.21875 -5.769531 14.21875 -7.25 L 14.21875 -17.5 Z M 17.171875 -17.5 "/></g></g></g><g fill="#141414" fill-opacity="1"><g transform="translate(176.81519, 299.457196)"><g><path d="M 9.90625 -13.40625 C 11.445312 -13.40625 12.65625 -12.945312 13.53125 -12.03125 C 14.40625 -11.125 14.84375 -9.875 14.84375 -8.28125 L 14.84375 0 L 11.96875 0 L 11.96875 -7.46875 C 11.96875 -8.46875 11.6875 -9.253906 11.125 -9.828125 C 10.5625 -10.410156 9.78125 -10.703125 8.78125 -10.703125 C 7.707031 -10.679688 6.832031 -10.335938 6.15625 -9.671875 C 5.488281 -9.003906 5.101562 -8.140625 5 -7.078125 L 5 0 L 2.125 0 L 2.125 -13.296875 L 5 -13.296875 L 5 -10.75 C 5.894531 -12.519531 7.53125 -13.40625 9.90625 -13.40625 Z M 9.90625 -13.40625 "/></g></g></g><g fill="#141414" fill-opacity="1"><g transform="translate(196.187558, 299.457196)"><g><path d="M 2.34375 -18.359375 C 2.664062 -18.679688 3.066406 -18.84375 3.546875 -18.84375 C 4.035156 -18.84375 4.4375 -18.679688 4.75 -18.359375 C 5.0625 -18.035156 5.21875 -17.613281 5.21875 -17.09375 C 5.21875 -16.59375 5.0625 -16.179688 4.75 -15.859375 C 4.4375 -15.535156 4.035156 -15.375 3.546875 -15.375 C 3.066406 -15.375 2.664062 -15.535156 2.34375 -15.859375 C 2.03125 -16.179688 1.875 -16.59375 1.875 -17.09375 C 1.875 -17.613281 2.03125 -18.035156 2.34375 -18.359375 Z M 4.96875 0 L 2.125 0 L 2.125 -13.296875 L 4.96875 -13.296875 Z M 4.96875 0 "/></g></g></g><g fill="#141414" fill-opacity="1"><g transform="translate(206.086422, 299.457196)"><g><path d="M 8.15625 0 L 5.171875 0 L 0.03125 -13.296875 L 3.03125 -13.296875 L 6.71875 -2.828125 L 10.375 -13.296875 L 13.25 -13.296875 Z M 8.15625 0 "/></g></g></g><g fill="#141414" fill-opacity="1"><g transform="translate(222.009341, 299.457196)"><g><path d="M 7.59375 -13.40625 C 9.882812 -13.40625 11.539062 -12.71875 12.5625 -11.34375 C 13.582031 -9.96875 14.003906 -8.035156 13.828125 -5.546875 L 3.78125 -5.546875 C 4.007812 -4.515625 4.488281 -3.703125 5.21875 -3.109375 C 5.957031 -2.515625 6.851562 -2.21875 7.90625 -2.21875 C 9.40625 -2.21875 10.65625 -2.738281 11.65625 -3.78125 L 13.171875 -2.15625 C 11.804688 -0.65625 9.972656 0.09375 7.671875 0.09375 C 5.617188 0.09375 3.972656 -0.523438 2.734375 -1.765625 C 1.492188 -3.003906 0.875 -4.625 0.875 -6.625 C 0.875 -8.625 1.5 -10.25 2.75 -11.5 C 4 -12.75 5.613281 -13.382812 7.59375 -13.40625 Z M 3.71875 -7.65625 L 11.328125 -7.65625 C 11.273438 -8.71875 10.914062 -9.554688 10.25 -10.171875 C 9.582031 -10.785156 8.707031 -11.09375 7.625 -11.09375 C 6.570312 -11.09375 5.695312 -10.785156 5 -10.171875 C 4.3125 -9.554688 3.882812 -8.71875 3.71875 -7.65625 Z M 3.71875 -7.65625 "/></g></g></g><g fill="#141414" fill-opacity="1"><g transform="translate(239.507013, 299.457196)"><g><path d="M 5 -13.296875 L 5 -10.65625 C 5.914062 -12.488281 7.445312 -13.40625 9.59375 -13.40625 L 9.59375 -10.65625 C 8.28125 -10.71875 7.210938 -10.40625 6.390625 -9.71875 C 5.578125 -9.039062 5.113281 -8.117188 5 -6.953125 L 5 0 L 2.125 0 L 2.125 -13.296875 Z M 5 -13.296875 "/></g></g></g><g fill="#141414" fill-opacity="1"><g transform="translate(252.155458, 299.457196)"><g><path d="M 6.09375 -13.421875 C 7.925781 -13.421875 9.476562 -12.972656 10.75 -12.078125 L 9.703125 -9.953125 C 8.429688 -10.734375 7.15625 -11.125 5.875 -11.125 C 4.570312 -11.125 3.921875 -10.679688 3.921875 -9.796875 C 3.921875 -9.367188 4.160156 -9.007812 4.640625 -8.71875 C 5.128906 -8.4375 5.71875 -8.195312 6.40625 -8 C 7.101562 -7.8125 7.796875 -7.585938 8.484375 -7.328125 C 9.179688 -7.078125 9.769531 -6.660156 10.25 -6.078125 C 10.726562 -5.492188 10.96875 -4.75 10.96875 -3.84375 C 10.96875 -2.5625 10.476562 -1.582031 9.5 -0.90625 C 8.53125 -0.238281 7.320312 0.09375 5.875 0.09375 C 4.875 0.09375 3.894531 -0.0664062 2.9375 -0.390625 C 1.976562 -0.710938 1.175781 -1.164062 0.53125 -1.75 L 1.546875 -3.796875 C 2.117188 -3.296875 2.816406 -2.894531 3.640625 -2.59375 C 4.460938 -2.300781 5.25 -2.15625 6 -2.15625 C 6.644531 -2.15625 7.164062 -2.269531 7.5625 -2.5 C 7.96875 -2.726562 8.171875 -3.085938 8.171875 -3.578125 C 8.171875 -4.078125 7.925781 -4.472656 7.4375 -4.765625 C 6.957031 -5.066406 6.375 -5.3125 5.6875 -5.5 C 5.007812 -5.6875 4.328125 -5.90625 3.640625 -6.15625 C 2.960938 -6.40625 2.382812 -6.816406 1.90625 -7.390625 C 1.4375 -7.960938 1.203125 -8.691406 1.203125 -9.578125 C 1.203125 -10.835938 1.671875 -11.789062 2.609375 -12.4375 C 3.554688 -13.09375 4.71875 -13.421875 6.09375 -13.421875 Z M 6.09375 -13.421875 "/></g></g></g><g fill="#141414" fill-opacity="1"><g transform="translate(266.703598, 299.457196)"><g><path d="M 7.59375 -13.40625 C 9.882812 -13.40625 11.539062 -12.71875 12.5625 -11.34375 C 13.582031 -9.96875 14.003906 -8.035156 13.828125 -5.546875 L 3.78125 -5.546875 C 4.007812 -4.515625 4.488281 -3.703125 5.21875 -3.109375 C 5.957031 -2.515625 6.851562 -2.21875 7.90625 -2.21875 C 9.40625 -2.21875 10.65625 -2.738281 11.65625 -3.78125 L 13.171875 -2.15625 C 11.804688 -0.65625 9.972656 0.09375 7.671875 0.09375 C 5.617188 0.09375 3.972656 -0.523438 2.734375 -1.765625 C 1.492188 -3.003906 0.875 -4.625 0.875 -6.625 C 0.875 -8.625 1.5 -10.25 2.75 -11.5 C 4 -12.75 5.613281 -13.382812 7.59375 -13.40625 Z M 3.71875 -7.65625 L 11.328125 -7.65625 C 11.273438 -8.71875 10.914062 -9.554688 10.25 -10.171875 C 9.582031 -10.785156 8.707031 -11.09375 7.625 -11.09375 C 6.570312 -11.09375 5.695312 -10.785156 5 -10.171875 C 4.3125 -9.554688 3.882812 -8.71875 3.71875 -7.65625 Z M 3.71875 -7.65625 "/></g></g></g></svg>